<?xml version="1.0" encoding="UTF-8"?>
<svg width="32px" height="32px" viewBox="0 0 32 32" version="1.1" xmlns="http://www.w3.org/2000/svg" xmlns:xlink="http://www.w3.org/1999/xlink">
    <!-- Generator: Sketch 42 (36781) - http://www.bohemiancoding.com/sketch -->
    <title>facebook</title>
    <desc>Created with Sketch.</desc>
    <defs>
        <polygon id="path-1" points="3.59398649 13.8412546 7.18794244 13.8412546 7.18794244 0 3.59398649 0 3.05433186e-05 0 3.05433186e-05 13.8412546 3.59398649 13.8412546"></polygon>
    </defs>
    <g id="Symbols" stroke="none" stroke-width="1" fill="none" fill-rule="evenodd">
        <g id="closed_footer" transform="translate(-560.000000, -166.000000)">
            <g id="facebook" transform="translate(560.000000, 166.000000)">
                <circle id="Oval-4" fill="#3C5A99" cx="16" cy="16" r="16"></circle>
                <g id="Page-1" transform="translate(12.373333, 9.066667)">
                    <mask id="mask-2" fill="white">
                        <use xlink:href="#path-1"></use>
                    </mask>
                    <g id="Clip-2"></g>
                    <path d="M4.66558355,13.8412546 L4.66558355,7.52764523 L6.78486226,7.52764523 L7.10214626,5.06707548 L4.66558355,5.06707548 L4.66558355,3.49611043 C4.66558355,2.78371806 4.86338209,2.29826256 5.88499501,2.29826256 L7.18797298,2.29765169 L7.18797298,0.0969444934 C6.96256329,0.0670120411 6.18914537,0 5.28933921,0 C3.41074185,0 2.12468488,1.14665727 2.12468488,3.25249692 L2.12468488,5.06707548 L3.05433186e-05,5.06707548 L3.05433186e-05,7.52764523 L2.12468488,7.52764523 L2.12468488,13.8412546 L4.66558355,13.8412546 Z" id="Fill-1" fill="#FEFEFE" mask="url(#mask-2)"></path>
                </g>
            </g>
        </g>
    </g>
</svg>