<svg width="131" height="46" xmlns="http://www.w3.org/2000/svg"><g fill-rule="nonzero" fill="none"><path d="M67.51 15.786c-5.576.098-10.37 4.83-10.708 10.568-.338 5.738 4.183 10.868 10.098 11.458 5.916.588 10.709-4.145 10.709-10.569-.001-6.427-4.521-11.556-10.099-11.457zm.694 16.608c-3.067.361-5.679-2.443-5.502-6.014.174-3.572 1.602-5.804 4.494-5.865 2.892-.061 4.642 3.26 4.312 7.142-.253 2.973-2.094 4.594-3.304 4.737zm10.487-4.565c0 6.426 4.793 11.158 10.709 10.569 5.915-.589 10.436-5.719 10.099-11.457-.337-5.738-5.133-10.471-10.71-10.569-5.577-.098-10.098 5.032-10.098 11.457zm6.101.415c-.33-3.883 1.42-7.203 4.312-7.142 2.893.06 4.32 2.292 4.495 5.864.176 3.57-2.437 6.374-5.503 6.013-1.21-.141-3.05-1.763-3.304-4.735zM0 40.657V7.668l6.911-1.773-.017 14.054L18.565 8.693 24.567 11l-8.482 9.41 5.626 20.494h-6.103l-4.502-15.702-4.252 4.164.057 11.538L0 40.657zm47.592-14.389c-.002-.058.004.071 0 0 .004.068-.002-.06 0 0z" fill="#FFF"/><path d="M47.592 26.268c-.002-.047.004.048 0 0 .004.047-.002-.049 0 0z" fill="#46178F"/><path d="M47.592 26.268c-.005-.123.008.153 0 0 .008.141-.006-.133 0 0z" fill="#46178F"/><path d="M47.592 26.268c-.001-.022.001.021 0 0 .001.022-.001-.022 0 0z" fill="#46178F"/><path d="M47.592 26.268c-.002-.07.006.107 0 0 .007.116-.002-.067 0 0z" fill="#46178F"/><path d="M47.592 26.268c-.001-.024.003.043 0 0 .003.041-.001-.025 0 0z" fill="#46178F"/><path d="M47.592 26.268c-.004-.094.006.105 0 0 .007.11-.003-.089 0 0z" fill="#46178F"/><path d="M47.592 26.268c-.004-.113.006.106 0 0 .007.116-.004-.104 0 0z" fill="#46178F"/><path d="M47.592 26.268c-.001-.016 0 0 0 0 .001.008-.001-.008 0 0z" fill="#46178F"/><path d="M47.592 26.268c-.001-.031.001.02 0 0 .002.026-.001-.026 0 0z" fill="#46178F"/><path d="M47.592 26.268c-.001-.01.001.009 0 0 .001.007-.001-.012 0 0z" fill="#46178F"/><path d="M47.592 26.268c-.002-.051.004.051 0 0 .003.043-.002-.061 0 0z" fill="#46178F"/><path d="M47.592 26.268c-.009-.194.012.229 0 0 .01.172-.011-.241 0 0z" fill="#46178F"/><path d="M47.592 26.268c-.001-.023.001.02 0 0 .001.022-.001-.022 0 0z" fill="#46178F"/><path d="M50.468 38.354h6.068l-2.282-16.152c-.863-9.434-4.304-9.456-10.726-7.404L43.395 0l-5.906 1.578.941 36.575 5.801.2-.336-18.898c1.271-.562 5.472-1.745 5.613 2.913l.562 6.643.398 9.343zm73.16.19l-1.713 4.034 3.626 2.531 3.575-2.138-1.506-4.427h-3.982zM98.409 13.429l.994 6.864h4.154l.288 16.327s-.649 5.874 8.202 4.529c0 0 2.77-.83 2.682-2.789v-6.45s-1.865 1.115-3.892 1.115-2.04-.989-2.04-.989l-.542-12.645 6.474-.361v-4.155l-6.628-.437.081-8.557-4.61-1.911-.006 9.639-5.157-.18zm20.375-9.82L131 5.962l-4.716 30.29-7.5-32.643zM23.1 15.016l1.618 4.271c4.014-2.438 6.282.01 6.282.01l-.031 2.726c-11.961 2.12-8.935 13.31-8.935 13.31 1.21 4.391 5.148 4.239 5.148 4.239l8.968.001.17-20.361c-1.405-9.478-13.22-4.196-13.22-4.196zm7.856 20.661s-4.338 1.062-4.817-3.212c0 0 .093-6.615 4.98-5.904l-.163 9.116z" fill="#FFF"/></g></svg>