<?xml version="1.0" encoding="UTF-8"?>
<svg width="93px" height="32px" viewBox="0 0 93 32" version="1.1" xmlns="http://www.w3.org/2000/svg" xmlns:xlink="http://www.w3.org/1999/xlink">
    <!-- Generator: Sketch 42 (36781) - http://www.bohemiancoding.com/sketch -->
    <title>top_bg</title>
    <desc>Created with Sketch.</desc>
    <defs></defs>
    <g id="Symbols" stroke="none" stroke-width="1" fill="none" fill-rule="evenodd">
        <g id="envelope_footer" transform="translate(-851.000000, -498.000000)" fill="#FFFFFF">
            <path d="M914.420089,525.239049 C910.22375,525.656498 906.822967,522.299791 906.822967,517.741736 C906.822967,513.183317 910.030325,509.544304 913.986978,509.614607 C917.942901,509.683818 921.344777,513.040525 921.5841,517.111921 C921.823422,521.182588 918.616064,524.821237 914.420089,525.239049 Z M891.294691,516.695201 C891.534378,512.624169 894.935525,509.267826 898.891813,509.197887 C902.848101,509.128313 906.055459,512.767325 906.055459,517.32538 C906.055459,521.883799 902.654676,525.240506 898.458337,524.823058 C894.262362,524.40561 891.055368,520.766597 891.294691,516.695201 Z M899.383572,520.979328 C900.241781,520.878062 901.548038,519.72844 901.726892,517.619707 C901.961479,514.865131 900.720426,512.509425 898.668883,512.552773 C896.616246,512.595756 895.603588,514.179583 895.480102,516.71305 C895.355523,519.245788 897.207449,521.236135 899.383572,520.979328 Z M911.151534,518.035698 C911.330753,520.144431 912.637009,521.294053 913.495219,521.395319 C915.670977,521.652126 917.522903,519.662144 917.399053,517.129041 C917.274838,514.595574 916.262544,513.012112 914.209908,512.968764 C912.158729,512.925417 910.917312,515.281122 911.151534,518.035698 Z M851,503.208997 L855.903014,501.951553 L855.890994,511.921137 L864.169657,503.936071 L868.427921,505.572352 L862.410618,512.247518 L866.401512,526.786449 L862.071851,526.786449 L858.878335,515.647573 L855.862217,518.601038 L855.903014,526.786449 L851,526.611238 L851,503.208997 Z M891.107094,525.206994 L886.80184,525.206994 L886.519898,518.580275 L886.119934,513.867407 C886.019761,510.563155 883.040069,511.402058 882.138148,511.800929 L882.376377,525.206994 L878.262362,525.064566 L877.593571,499.119388 L881.783717,498 L881.878426,508.496312 C886.435024,507.041071 888.874875,507.056734 889.487569,513.749385 L891.107094,525.206994 Z M937.485748,528.204535 L938.701667,525.341772 L941.526182,525.341772 L942.594937,528.483198 L940.05892,530 L937.485748,528.204535 Z M921.515982,512.395775 L920.811128,507.526273 L924.469447,507.653766 L924.473818,500.815773 L927.744559,502.171569 L927.687369,508.24169 L932.38858,508.55168 L932.38858,511.498953 L927.795556,511.75576 L928.180585,520.726163 C928.180585,520.726163 928.190056,521.427739 929.627812,521.427739 C931.065204,521.427739 932.38858,520.637283 932.38858,520.637283 L932.38858,525.212094 C932.451234,526.602495 930.48675,527.191148 930.48675,527.191148 C924.206812,528.144796 924.667972,523.977962 924.667972,523.977962 L924.463619,512.395775 L921.515982,512.395775 Z M943.930698,502.229487 L940.586012,523.717148 L935.264457,500.560058 L943.930698,502.229487 Z M868.535015,511.68145 L867.38685,508.651489 C867.38685,508.651125 875.767872,504.905018 876.765595,511.627538 L876.644659,526.072125 L870.282397,526.071396 C870.282397,526.071396 867.489937,526.178854 866.630999,523.063655 C866.630999,523.063655 864.483654,515.126309 872.96922,513.621892 L872.99144,511.688007 C872.99144,511.688007 871.382479,509.951553 868.535015,511.68145 Z M872.960113,523.308442 L873.075949,516.841271 C869.608506,516.337492 869.543666,521.030325 869.543666,521.030325 C869.882433,524.062472 872.960113,523.308442 872.960113,523.308442 Z" id="top_bg"></path>
        </g>
    </g>
</svg>