<?xml version="1.0" encoding="UTF-8"?>
<svg width="32px" height="32px" viewBox="0 0 32 32" version="1.1" xmlns="http://www.w3.org/2000/svg" xmlns:xlink="http://www.w3.org/1999/xlink">
    <!-- Generator: Sketch 42 (36781) - http://www.bohemiancoding.com/sketch -->
    <title>twitter</title>
    <desc>Created with Sketch.</desc>
    <defs></defs>
    <g id="Symbols" stroke="none" stroke-width="1" fill="none" fill-rule="evenodd">
        <g id="closed_footer" transform="translate(-560.000000, -124.000000)">
            <g id="twitter" transform="translate(560.000000, 124.000000)">
                <circle id="Oval-4-Copy" fill="#1DA1F2" cx="16" cy="16" r="16"></circle>
                <path d="M13.427456,21.6141482 C18.6601813,21.6141482 21.5222613,17.2788735 21.5222613,13.5193428 C21.5222613,13.3962068 21.5222613,13.2736255 21.5139413,13.1515988 C22.0707331,12.7488614 22.5513652,12.2501986 22.9333333,11.6789588 C22.4140983,11.9090355 21.8632866,12.0599198 21.2992853,12.1265748 C21.8931913,11.7710235 22.3376898,11.211803 22.5500587,10.5529855 C21.9915967,10.884374 21.380625,11.1179202 20.7435093,11.2435455 C19.8616352,10.3058228 18.4603457,10.0763119 17.3254033,10.6837093 C16.190461,11.2911066 15.6041205,12.5843555 15.895168,13.8382762 C13.6076648,13.7235986 11.4764026,12.6431488 10.0317867,10.8658175 C9.27667609,12.1657591 9.66237195,13.8287689 10.9125973,14.6636202 C10.4598458,14.6502014 10.0169656,14.5280669 9.62133333,14.3075242 L9.62133333,14.3435775 C9.62170392,15.6978477 10.5763315,16.8642797 11.9037867,17.1324415 C11.484941,17.2466696 11.0454847,17.2633674 10.6191787,17.1812522 C10.9918858,18.3401854 12.0599667,19.1341136 13.2771413,19.1569748 C12.2697197,19.9487237 11.0252277,20.3785326 9.74391467,20.3772415 C9.51755718,20.3768069 9.29141985,20.3631016 9.06666667,20.3361962 C10.3677127,21.1711229 11.881552,21.6139911 13.427456,21.6119295" id="Shape" fill="#FFFFFF" fill-rule="nonzero"></path>
            </g>
        </g>
    </g>
</svg>